
<svg width="126" height="138" viewBox="0 0 126 138" fill="none" xmlns="http://www.w3.org/2000/svg">
<path fill-rule="evenodd" clip-rule="evenodd" d="M72.8388 0.0324508C67.7431 -0.150603 62.6192 0.457509 57.6292 1.43483C47.7257 3.37087 37.583 6.53863 28.6129 11.0808C24.8466 12.989 21.3718 15.3454 18.2382 18.0599C15.4056 16.7453 10.9367 16.6386 10.0288 19.6531C9.76833 20.5184 9.89808 21.3027 10.2721 21.9735C10.1631 22.0337 10.0553 22.0982 9.94992 22.1668C9.23533 22.6312 8.85392 22.9692 8.41158 23.3957L8.06226 23.7355C6.95622 24.8124 6.85168 26.8052 8.06226 27.8685L8.22784 28.0137L8.32971 28.0999C8.536 28.2681 8.75733 28.4103 8.98833 28.5281C4.74605 34.8382 1.86651 42.0294 0.674477 49.544C-0.0259087 53.9559 -0.230174 58.3678 0.297273 62.8077C0.481261 64.368 0.731433 66.0037 1.14886 67.5625C0.0705432 68.9098 -0.171207 71.5325 1.78586 71.7057C2.22326 71.6454 2.46912 71.4853 2.60284 71.2666C2.66728 71.3933 2.73205 71.5196 2.79669 71.6457L2.79771 71.6477L2.79827 71.6488C2.90649 71.8598 3.01433 72.0702 3.1196 72.2799C3.46492 72.9703 3.95541 73.5383 4.45183 74.1132C4.70952 74.4116 4.9688 74.7118 5.21021 75.032C5.28692 75.1282 5.4084 75.1778 5.52667 75.1809C5.31282 75.6091 5.1175 76.0434 4.93562 76.4747C3.88999 78.9537 3.08475 81.625 2.61804 84.265C1.73897 89.245 2.276 94.845 6.18199 98.5717C7.73876 100.054 10.149 101.242 12.5181 101.559C11.7602 102.317 11.1496 103.216 10.6608 104.252C9.74658 106.185 11.2711 108.801 13.6941 108.081C14.1547 107.944 14.6116 107.771 15.0594 107.578C15.7559 108.922 17.2459 109.831 18.8442 109.598C19.7745 109.462 20.4454 109.111 20.9061 108.617C22.0597 111.093 23.5909 113.343 25.5317 115.329C26.5436 116.366 27.6081 117.354 28.6723 118.341C29.7658 119.355 30.8592 120.369 31.8962 121.437C32.695 122.261 33.3633 123.185 34.0291 124.105C35.0202 125.476 36.0056 126.838 37.4072 127.847C38.1357 128.372 39.2517 127.813 39.4562 127.038C39.6452 126.32 39.6681 125.631 39.5661 124.969C39.2391 122.849 37.6284 121.013 36.0813 119.431L35.8248 119.17C34.4529 117.786 32.9467 116.546 31.4403 115.305C30.5561 114.577 29.6718 113.849 28.8146 113.092C26.4075 110.963 24.47 108.705 22.7247 106.037C22.5739 105.807 22.4236 105.572 22.2728 105.336L21.587 104.256C21.5515 104.097 21.5132 103.942 21.4687 103.79C21.4332 103.179 21.2226 102.598 20.8166 102.065C20.3144 101.404 19.6434 100.905 18.8954 100.672C18.6428 100.412 18.3804 100.163 18.1058 99.9333C18.4475 99.5708 18.7483 99.1425 19.0041 98.6458C19.4772 97.7217 18.9242 96.2508 17.6582 96.3717C17.278 96.4075 16.9044 96.3908 16.5312 96.3733C16.1229 96.355 15.715 96.3367 15.2992 96.3875C15.2326 96.3953 15.166 96.4038 15.0995 96.4124L15.0005 96.425L14.9988 96.4252C14.3163 96.5126 13.6349 96.5999 12.9461 96.5083C11.5303 96.3125 10.2612 95.5683 9.34058 94.5258C7.03549 91.9192 6.79255 88.1717 7.27524 84.92C7.48857 83.4683 7.85317 82.0418 8.24059 80.6232L8.83958 78.4499C9.18092 77.2357 9.59217 75.977 10.3955 74.9885C12.9164 71.8857 17.2357 74.3207 19.821 76.1884L20.0557 76.3599C20.0782 76.3754 20.0973 76.3816 20.1197 76.3816C20.2572 76.5988 20.4043 76.8129 20.5577 77.0177C21.4044 78.1284 22.4306 79.115 23.489 80.0458L23.7048 80.2372C23.8497 80.364 23.996 80.4895 24.1411 80.6136C25.3782 81.6716 27.0529 80.8928 27.2162 79.3787C27.3945 77.7015 27.4395 76.0135 27.4844 74.3249C27.5159 73.1398 27.5475 71.9543 27.6252 70.7721C27.6431 70.4993 27.6624 70.2266 27.683 69.9539C30.8747 70.3331 34.071 70.7049 37.2846 70.9713C38.2878 72.2808 41.5289 72.7189 43.2579 72.1928C40.5347 81.9338 46.4133 88.5609 55.2217 90.546C68.8609 93.5868 80.7271 81.7448 77.1606 69.4274C81.2923 67.4324 86.0451 67.5181 90.5459 68.5689C85.5986 86.2401 103.193 91.7663 113.834 85.4364C114.661 84.9446 115.445 84.3812 116.174 83.7464C117.69 98.2185 117.096 113.484 105.606 124.349C96.5215 133.522 84.1357 137.276 71.7032 136.727C72.4445 136.871 73.1891 136.993 73.9322 137.097C78.7271 137.767 83.5633 137.692 88.3008 136.641C97.0917 134.692 104.863 129.567 110.275 122.613C116.218 114.978 118.132 105.85 118.257 96.4458C118.322 91.5688 118.235 86.6803 118.05 81.7933C120.974 78.1345 122.338 72.8543 120.642 65.9677C125.275 68.2047 126.282 64.6088 123.85 64.1573C122.784 64.1595 121.245 64.3295 120.363 65.0471C119.658 62.7401 118.338 60.4887 116.639 58.6625C116.435 56.139 116.202 53.6161 115.907 51.1015C116.748 51.1822 117.63 50.9277 118.347 50.2297C119.742 48.8757 120.072 46.7919 120.238 44.9098L120.28 44.3906C120.415 42.6562 120.143 40.8815 119.654 39.2154C118.98 36.9337 117.85 35.0126 116.254 33.4038C118.392 31.1682 119.542 28.0041 119.797 25.0169C119.98 22.8642 120.15 20.035 117.702 19.0319C117.219 18.8337 116.719 18.7605 116.216 18.7707C116.345 18.004 116.432 17.2281 116.482 16.4428C116.56 15.1943 115.24 13.8257 113.918 13.9548C113.651 13.9811 113.384 14.0085 113.116 14.0358L112.714 14.0767C112.954 13.7042 113.195 13.3324 113.442 12.9645C114.483 11.4202 113.077 9.69867 111.434 9.56675C107.068 9.2165 102.746 8.3475 98.58 7.03102C98.272 6.93364 97.9629 6.83622 97.6531 6.73856C93.7536 5.50932 89.7308 4.2412 86.0483 2.53533C85.7683 2.40533 85.4583 2.50151 85.2658 2.68891C81.9214 0.524991 77.0658 0.195989 73.2317 0.0472612L72.8388 0.0324508ZM116.968 63.0109C119.123 67.1798 119.443 72.6222 117.837 76.9742C117.658 73.3865 117.436 69.8019 117.192 66.2256L117.048 64.148C117.022 63.7691 116.995 63.39 116.968 63.0109ZM16.6671 82.0842C16.5487 82.0317 16.426 81.9762 16.2994 81.9191C14.8152 81.2492 12.8049 80.342 11.2615 80.8308C10.5551 81.0542 10.3469 81.7802 10.6666 82.3138H10.6411L10.7073 82.4166C11.0008 82.8506 11.3776 83.1447 11.7906 83.4233L11.9837 83.5517C11.4657 83.9083 11.0694 84.4233 10.8968 85.0817C10.619 86.1267 11.0694 87.4117 12.0923 87.9358C12.5018 88.1433 12.9458 88.2583 13.4093 88.28C14.0632 88.3083 14.6088 88.0158 15.1036 87.65L15.2506 87.5383C15.4683 87.3708 15.6442 87.1475 15.7845 86.9058C15.9529 87.1169 16.1175 87.3334 16.2821 87.5498C17.2825 88.8654 18.278 90.1745 20.0872 90.2225C21.0941 90.25 22.2321 89.4717 22.4399 88.4817C22.4466 88.4535 22.4529 88.4252 22.459 88.397C22.468 88.3559 22.4765 88.3147 22.4848 88.2741L22.5009 88.1967C22.6956 87.2683 22.5552 86.1825 21.7721 85.5192C20.1993 84.1908 18.5754 82.9344 16.6671 82.0842ZM67.4455 59.4654C67.6229 59.3261 67.7582 59.1618 67.856 58.982C71.9926 60.412 75.257 63.3082 76.887 68.5357C80.5136 65.3428 87.0901 64.3118 91.2717 66.7263C92.4806 64.0889 94.1674 61.7921 96.284 59.9542C97.0545 60.1482 97.819 60.3656 98.5767 60.6054L98.5855 60.6082C91.0918 67.0883 88.0282 79.9689 99.34 84.5561C104.047 86.4589 109.847 85.6991 113.776 82.6016C113.622 75.8643 113.354 69.1272 112.985 62.3977L112.896 60.7972C112.848 59.9454 112.8 59.0935 112.753 58.2416C111.43 57.3956 109.896 56.8303 108.153 56.6415C107.923 56.7556 107.717 56.7237 107.561 56.6994C107.466 56.6846 107.389 56.6727 107.336 56.698C106.334 56.8051 105.269 57.1476 104.297 57.4603C103.76 57.6329 103.251 57.7965 102.797 57.9065C102.653 57.9696 102.511 58.0352 102.369 58.1031C101.824 57.7453 101.25 57.4173 100.655 57.1161C101.457 56.7403 102.297 56.414 103.173 56.1408C106.315 53.9783 109.67 54.1232 112.607 55.5858C112.433 52.379 112.266 49.1713 112.113 45.9636C112.039 44.4122 111.927 42.8486 111.726 41.3003C109.882 40.2517 108.229 38.8058 107.152 37.0218C104.987 37.8906 102.712 38.5173 100.617 39.0168C95.7667 40.1747 90.7308 40.4558 85.7933 39.7307C84.4617 40.2647 83.1037 40.7341 81.7246 41.1381C81.3519 41.2985 80.9792 41.4561 80.6068 41.6106C77.2819 42.9912 73.9094 44.1609 70.3998 45.0172L69.5377 45.2259C67.6907 45.6678 65.6845 46.1031 63.7188 46.2397C63.396 46.3607 63.0475 46.4631 62.6668 46.5531C60.877 46.975 59.0194 47.1084 57.1848 46.9595C55.3977 46.8137 54.1062 45.0607 55.0908 43.4194C55.81 42.2218 56.5359 41.0273 57.268 39.8359C54.7203 40.866 52.0894 41.7223 49.4362 42.4483C46.7574 43.1805 44.0403 43.7979 41.3196 44.3657C40.5986 44.5149 39.8762 44.6557 39.1542 44.7964C38.4195 44.9396 37.6852 45.0826 36.9532 45.2344C36.7215 45.2822 36.4622 45.3248 36.1896 45.3697C35.24 45.5258 34.1302 45.7083 33.4718 46.2242C32.7454 46.7899 32.4228 47.9401 32.1488 48.9172C32.0697 49.1994 31.9946 49.4672 31.915 49.7022C31.4483 51.0642 31.0104 52.4325 30.6108 53.8163C29.8152 56.5776 29.163 59.3792 28.658 62.2088C28.3155 64.1298 28.0493 66.0636 27.8546 68.0044C31.3071 68.5444 34.6209 69.186 37.4391 69.9033C39.0303 68.8903 41.4278 69.1998 43.317 69.4437L43.3239 69.4446L43.3258 69.4448L43.328 69.4451C43.6281 69.4838 43.9153 69.5209 44.1843 69.5506C45.1782 67.1339 47.0944 64.4665 49.5467 62.2774C48.7294 63.1765 48.0232 64.1497 47.4802 65.182C47.2964 65.5316 47.6896 66.0097 48.0748 65.7591C48.8399 65.261 49.5958 64.7744 50.3562 64.3104C43.7169 71.1422 41.6536 83.0049 53.0426 87.3581C59.6546 89.963 67.7472 88.2343 72.1001 82.6307C78.3891 74.6326 75.1384 62.3282 64.5917 60.3709C65.5927 60.3435 66.5451 60.1728 67.4455 59.4654ZM64.5917 60.3709C61.514 59.7997 57.8149 60.1097 53.5503 61.665C52.4056 62.4118 51.3315 63.3068 50.3562 64.3104C52.5133 62.9941 54.7066 61.8588 57.2479 61.1539C58.8146 60.7192 60.3778 60.4579 62.0042 60.3673C62.5084 60.3394 63.0027 60.3513 63.4866 60.3629C63.8612 60.3719 64.2297 60.3808 64.5917 60.3709ZM100.655 57.1161C99.0438 57.8711 97.583 58.8262 96.284 59.9542C94.6289 59.5373 92.9464 59.2281 91.2462 59.0342C90.7062 58.9727 90.1861 58.7958 89.7758 58.4927C89.3864 58.2049 89.089 57.8064 88.9533 57.2768C88.7775 56.5915 88.8281 56.0726 89.2069 55.4542C89.4918 54.9899 89.8995 54.668 90.3676 54.4832C90.8448 54.2948 91.388 54.2504 91.9281 54.3554L92.3874 54.4466C95.0024 54.9771 98.0266 55.7845 100.655 57.1161ZM102.369 58.1031C101.025 58.7461 99.7518 59.5996 98.5855 60.6082C99.7 60.9619 100.752 61.4401 101.795 61.9363L102.696 62.3672C103.527 62.7617 104.385 63.142 105.47 63.4179C105.556 63.4396 105.64 63.4601 105.724 63.4794C105.989 63.3985 106.06 63.3027 106.117 63.226C106.124 63.2156 106.132 63.2056 106.139 63.1961L106.165 63.1646C106.243 63.0702 106.338 62.9258 106.248 62.252C105.399 60.5434 104.02 59.1869 102.369 58.1031ZM61.709 57.8574C57.311 57.1583 52.9213 59.2649 49.5467 62.2774C51.2799 60.3707 53.5127 58.7974 55.748 57.7013C57.5036 56.8403 59.4248 56.1261 61.3671 55.7984L61.9673 55.6965C63.8238 55.3848 66.1322 55.0854 67.4455 56.5341C68.0101 57.1567 68.2746 58.2126 67.856 58.982C65.965 58.3283 63.8917 57.981 61.709 57.8574ZM85.0954 82.9577C87.5093 84.3818 91.1873 87.7026 88.5906 91.2331C85.6776 94.1998 81.5438 91.0978 79.2846 89.4024L79.1664 89.3138C79.097 89.2618 79.0296 89.2113 78.9642 89.1626C76.9533 87.9116 74.6938 91.1292 76.5596 92.59C92.2308 103.851 98.5905 83.3301 86.3163 81.2833C84.9649 81.0577 84.463 82.5171 85.0954 82.9577ZM62.8208 69.095C62.3193 65.9154 57.2773 66.6451 57.0107 69.8582C56.9671 70.3836 56.9056 70.8643 56.8445 71.3419L56.8443 71.3434C56.673 72.6822 56.5048 73.9966 56.7419 76.2001C56.982 78.4308 60.1565 79.5737 61.4195 77.1239C62.7413 74.5596 63.27 71.9432 62.8208 69.095ZM98.3249 67.2769C97.1089 66.9321 96.094 67.5421 95.3911 68.4357C95.3098 68.5387 95.2437 68.6408 95.1843 68.742C92.9898 70.6991 93.8164 74.667 95.5426 76.6539C96.6017 77.8723 98.9451 77.5214 99.6701 76.1376C101.004 73.5895 102.124 68.3544 98.3249 67.2769Z" fill="black"/>
<path d="M47.4802 65.182C47.2964 65.5316 47.6896 66.0097 48.0748 65.7591C48.8399 65.261 49.5958 64.7744 50.3562 64.3104C51.3315 63.3068 52.4056 62.4118 53.5503 61.665C57.8149 60.1097 61.514 59.7997 64.5917 60.3709C65.5927 60.3435 66.5451 60.1728 67.4455 59.4654C67.6229 59.3261 67.7582 59.1618 67.856 58.982C65.965 58.3283 63.8917 57.981 61.709 57.8574C57.311 57.1583 52.9213 59.2649 49.5467 62.2774C48.7294 63.1765 48.0232 64.1497 47.4802 65.182Z" fill="black"/>
<path d="M96.284 59.9542C97.0545 60.1482 97.819 60.3656 98.5767 60.6054L98.5855 60.6082C99.7518 59.5996 101.025 58.7461 102.369 58.1031C101.824 57.7453 101.25 57.4173 100.655 57.1161C99.0438 57.8711 97.583 58.8262 96.284 59.9542Z" fill="black"/>
<path d="M77.3507 112.916C75.2018 112.066 73.2845 110.646 71.8828 108.833C71.3954 108.203 71.269 107.537 71.3713 106.929C71.4862 106.244 71.9034 105.624 72.4724 105.208C73.0433 104.79 73.7572 104.584 74.4474 104.689C75.0473 104.781 75.6443 105.099 76.1168 105.76L76.2155 105.893C77.0489 106.987 78.1348 107.885 79.3723 108.463C80.5648 109.021 81.8987 109.281 83.279 109.13C85.9078 108.842 87.7198 107.462 89.6458 105.588C89.8844 105.351 90.1233 105.107 90.3633 104.86C90.5149 104.635 90.7253 104.49 90.9588 104.415C91.2182 104.33 91.5115 104.335 91.7803 104.426C92.0394 104.514 92.2711 104.68 92.4264 104.902C92.5741 105.112 92.6578 105.372 92.6306 105.671C92.4543 107.613 91.4083 109.346 89.9223 110.707C88.2721 112.218 86.0846 113.264 84.0251 113.631C81.7562 114.035 79.4442 113.745 77.3507 112.916Z" fill="black"/>
<path d="M113.909 91.2367C113.98 99.9983 113.427 108.649 108.536 116.269C104.415 122.697 97.9867 127.813 90.5225 130.11C85.9383 131.518 81.0798 131.971 76.2942 131.522C73.9577 131.301 71.6433 130.782 69.4086 130.087L69.0872 129.989C66.8435 129.317 64.707 128.986 62.3667 128.71C60.8192 128.527 60.4452 130.476 61.2222 131.391C62.8653 133.321 64.6202 134.608 67.0622 135.483C68.563 136.02 70.1256 136.422 71.7032 136.727C84.1357 137.276 96.5215 133.522 105.606 124.349C117.096 113.484 117.69 98.2185 116.174 83.7464C115.445 84.3812 114.661 84.9446 113.834 85.4364C113.869 87.3699 113.894 89.3034 113.909 91.2367Z" fill="black"/>
<path fill-rule="evenodd" clip-rule="evenodd" d="M35.8248 119.17L36.0813 119.431C37.6284 121.013 39.2391 122.849 39.5661 124.969C48.5834 132.001 60.1634 136.218 71.7032 136.727C70.1256 136.422 68.563 136.02 67.0622 135.483C64.6202 134.608 62.8653 133.321 61.2222 131.391C60.4452 130.476 60.8192 128.527 62.3667 128.71C64.707 128.986 66.8435 129.317 69.0872 129.989L69.4086 130.087C71.6433 130.782 73.9577 131.301 76.2942 131.522C81.0798 131.971 85.9383 131.518 90.5225 130.11C97.9867 127.813 104.415 122.697 108.536 116.269C113.427 108.649 113.98 99.9983 113.909 91.2367C113.894 89.3034 113.869 87.3699 113.834 85.4364C103.193 91.7663 85.5986 86.2401 90.5459 68.5689C86.0451 67.5181 81.2923 67.4324 77.1606 69.4274C80.7271 81.7448 68.8609 93.5868 55.2217 90.546C46.4133 88.5609 40.5347 81.9338 43.2579 72.1928C41.5289 72.7189 38.2878 72.2808 37.2846 70.9713C34.071 70.7049 30.8747 70.3331 27.683 69.9539C27.6624 70.2266 27.6431 70.4993 27.6252 70.7721C27.5475 71.9543 27.5159 73.1398 27.4844 74.3249C27.4395 76.0135 27.3945 77.7015 27.2162 79.3787C27.0529 80.8928 25.3782 81.6716 24.1411 80.6136C23.996 80.4895 23.8497 80.364 23.7048 80.2372L23.489 80.0458C22.4306 79.115 21.4044 78.1284 20.5577 77.0177C20.4043 76.8129 20.2572 76.5988 20.1197 76.3816C20.0973 76.3816 20.0782 76.3754 20.0557 76.3599L19.821 76.1884C17.2357 74.3207 12.9164 71.8857 10.3955 74.9885C9.59217 75.977 9.18092 77.2357 8.83958 78.4499L8.24059 80.6232C7.85317 82.0418 7.48857 83.4683 7.27524 84.92C6.79255 88.1717 7.03549 91.9192 9.34058 94.5258C10.2612 95.5683 11.5303 96.3125 12.9461 96.5083C13.6349 96.5999 14.3163 96.5126 14.9988 96.4252L15.0005 96.425L15.0995 96.4124C15.166 96.4038 15.2326 96.3953 15.2992 96.3875C15.715 96.3367 16.1229 96.355 16.5312 96.3733C16.9044 96.3908 17.278 96.4075 17.6582 96.3717C18.9242 96.2508 19.4772 97.7217 19.0041 98.6458C18.7483 99.1425 18.4475 99.5708 18.1058 99.9333C18.3804 100.163 18.6428 100.412 18.8954 100.672C19.6434 100.905 20.3144 101.404 20.8166 102.065C21.2226 102.598 21.4332 103.179 21.4687 103.79C21.5132 103.942 21.5515 104.097 21.587 104.256L22.2728 105.336C22.4236 105.572 22.5739 105.807 22.7247 106.037C24.47 108.705 26.4075 110.963 28.8146 113.092C29.6718 113.849 30.5561 114.577 31.4403 115.305C32.9467 116.546 34.4529 117.786 35.8248 119.17ZM16.2994 81.9191C16.426 81.9762 16.5487 82.0317 16.6671 82.0842C18.5754 82.9344 20.1993 84.1908 21.7721 85.5192C22.5552 86.1825 22.6956 87.2683 22.5009 88.1967L22.4848 88.2741C22.4765 88.3147 22.468 88.3559 22.459 88.397C22.4529 88.4252 22.4466 88.4535 22.4399 88.4817C22.2321 89.4717 21.0941 90.25 20.0872 90.2225C18.278 90.1745 17.2825 88.8654 16.2821 87.5498C16.1175 87.3334 15.9529 87.1169 15.7845 86.9058C15.6442 87.1475 15.4683 87.3708 15.2506 87.5383L15.1036 87.65C14.6088 88.0158 14.0632 88.3083 13.4093 88.28C12.9458 88.2583 12.5018 88.1433 12.0923 87.9358C11.0694 87.4117 10.619 86.1267 10.8968 85.0817C11.0694 84.4233 11.4657 83.9083 11.9837 83.5517L11.7906 83.4233C11.3776 83.1447 11.0008 82.8506 10.7073 82.4166L10.6411 82.3138H10.6666C10.3469 81.7802 10.5551 81.0542 11.2615 80.8308C12.8049 80.342 14.8152 81.2492 16.2994 81.9191ZM85.0954 82.9577C87.5093 84.3818 91.1873 87.7026 88.5906 91.2331C85.6776 94.1998 81.5438 91.0978 79.2846 89.4024L79.1664 89.3138C79.097 89.2618 79.0296 89.2113 78.9642 89.1626C76.9533 87.9116 74.6938 91.1292 76.5596 92.59C92.2308 103.851 98.5905 83.3301 86.3163 81.2833C84.9649 81.0577 84.463 82.5171 85.0954 82.9577ZM71.8828 108.833C73.2845 110.646 75.2018 112.066 77.3507 112.916C79.4442 113.745 81.7562 114.035 84.0251 113.631C86.0846 113.264 88.2721 112.218 89.9223 110.707C91.4083 109.346 92.4543 107.613 92.6306 105.671C92.6578 105.372 92.5741 105.112 92.4264 104.902C92.2711 104.68 92.0394 104.514 91.7803 104.426C91.5115 104.335 91.2182 104.33 90.9588 104.415C90.7253 104.49 90.5149 104.635 90.3633 104.86C90.1233 105.107 89.8844 105.351 89.6458 105.588C87.7198 107.462 85.9078 108.842 83.279 109.13C81.8987 109.281 80.5648 109.021 79.3723 108.463C78.1348 107.885 77.0489 106.987 76.2155 105.893L76.1168 105.76C75.6443 105.099 75.0473 104.781 74.4474 104.689C73.7572 104.584 73.0433 104.79 72.4724 105.208C71.9034 105.624 71.4862 106.244 71.3713 106.929C71.269 107.537 71.3954 108.203 71.8828 108.833Z" fill="#EDB98A"/>
<path fill-rule="evenodd" clip-rule="evenodd" d="M63.4866 60.3629C63.0027 60.3513 62.5084 60.3394 62.0042 60.3673C60.3778 60.4579 58.8146 60.7192 57.2479 61.1539C54.7066 61.8588 52.5133 62.9941 50.3562 64.3104C43.7169 71.1422 41.6536 83.0049 53.0426 87.3581C59.6546 89.963 67.7472 88.2343 72.1001 82.6307C78.3891 74.6326 75.1384 62.3282 64.5917 60.3709C64.2297 60.3808 63.8612 60.3719 63.4866 60.3629ZM62.8208 69.095C62.3193 65.9154 57.2773 66.6451 57.0107 69.8582C56.9671 70.3836 56.9056 70.8643 56.8445 71.3419L56.8443 71.3434C56.673 72.6822 56.5048 73.9966 56.7419 76.2001C56.982 78.4308 60.1565 79.5737 61.4195 77.1239C62.7413 74.5596 63.27 71.9432 62.8208 69.095Z" fill="#EDB98A"/>
<path fill-rule="evenodd" clip-rule="evenodd" d="M112.985 62.3977L112.896 60.7972C112.848 59.9454 112.8 59.0935 112.753 58.2416C111.43 57.3956 109.896 56.8303 108.153 56.6415C107.923 56.7556 107.717 56.7237 107.561 56.6994C107.466 56.6846 107.389 56.6727 107.336 56.698C106.334 56.8051 105.269 57.1476 104.297 57.4603C103.76 57.6329 103.251 57.7965 102.797 57.9065C102.653 57.9696 102.511 58.0352 102.369 58.1031C104.02 59.1869 105.399 60.5434 106.248 62.252C106.338 62.9258 106.243 63.0702 106.165 63.1646L106.139 63.1961C106.132 63.2056 106.124 63.2156 106.117 63.226C106.06 63.3027 105.989 63.3985 105.724 63.4794C105.64 63.4601 105.556 63.4396 105.47 63.4179C104.385 63.142 103.527 62.7617 102.696 62.3672L101.795 61.9363C100.752 61.4401 99.7 60.9619 98.5855 60.6082C91.0918 67.0883 88.0282 79.9689 99.34 84.5561C104.047 86.4589 109.847 85.6991 113.776 82.6016C113.622 75.8643 113.354 69.1272 112.985 62.3977ZM95.3911 68.4357C96.094 67.5421 97.1089 66.9321 98.3249 67.2769C102.124 68.3544 101.004 73.5895 99.6701 76.1376C98.9451 77.5214 96.6017 77.8723 95.5426 76.6539C93.8164 74.667 92.9898 70.6991 95.1843 68.742C95.2437 68.6408 95.3098 68.5387 95.3911 68.4357Z" fill="#EDB98A"/>
<path d="M30.6108 53.8163C29.8152 56.5776 29.163 59.3792 28.658 62.2088C28.3155 64.1298 28.0493 66.0636 27.8546 68.0044C31.3071 68.5444 34.6209 69.186 37.4391 69.9033C39.0303 68.8903 41.4278 69.1998 43.317 69.4437L43.3239 69.4446L43.3258 69.4448L43.328 69.4451C43.6281 69.4838 43.9153 69.5209 44.1843 69.5506C45.1782 67.1339 47.0944 64.4665 49.5467 62.2774C51.2799 60.3707 53.5127 58.7974 55.748 57.7013C57.5036 56.8403 59.4248 56.1261 61.3671 55.7984L61.9673 55.6965C63.8238 55.3848 66.1322 55.0854 67.4455 56.5341C68.0101 57.1567 68.2746 58.2126 67.856 58.982C71.9926 60.412 75.257 63.3082 76.887 68.5357C80.5136 65.3428 87.0901 64.3118 91.2717 66.7263C92.4806 64.0889 94.1674 61.7921 96.284 59.9542C94.6289 59.5373 92.9464 59.2281 91.2462 59.0342C90.7062 58.9727 90.1861 58.7958 89.7758 58.4927C89.3864 58.2049 89.089 57.8064 88.9533 57.2768C88.7775 56.5915 88.8281 56.0726 89.2069 55.4542C89.4918 54.9899 89.8995 54.668 90.3676 54.4832C90.8448 54.2948 91.388 54.2504 91.9281 54.3554L92.3874 54.4466C95.0024 54.9771 98.0266 55.7845 100.655 57.1161C101.457 56.7403 102.297 56.414 103.173 56.1408C106.315 53.9783 109.67 54.1232 112.607 55.5858C112.433 52.379 112.266 49.1713 112.113 45.9636C112.039 44.4122 111.927 42.8486 111.726 41.3003C109.882 40.2517 108.229 38.8058 107.152 37.0218C104.987 37.8906 102.712 38.5173 100.617 39.0168C95.7667 40.1747 90.7308 40.4558 85.7933 39.7307C84.4617 40.2647 83.1037 40.7341 81.7246 41.1381C81.3519 41.2985 80.9792 41.4561 80.6068 41.6106C77.2819 42.9912 73.9094 44.1609 70.3998 45.0172L69.5377 45.2259C67.6907 45.6678 65.6845 46.1031 63.7188 46.2397C63.396 46.3607 63.0475 46.4631 62.6668 46.5531C60.877 46.975 59.0194 47.1084 57.1848 46.9595C55.3977 46.8137 54.1062 45.0607 55.0908 43.4194C55.81 42.2218 56.5359 41.0273 57.268 39.8359C54.7203 40.866 52.0894 41.7223 49.4362 42.4483C46.7574 43.1805 44.0403 43.7979 41.3196 44.3657C40.5986 44.5149 39.8762 44.6557 39.1542 44.7964C38.4195 44.9396 37.6852 45.0826 36.9532 45.2344C36.7215 45.2822 36.4622 45.3248 36.1896 45.3697C35.24 45.5258 34.1302 45.7083 33.4718 46.2242C32.7454 46.7899 32.4228 47.9401 32.1488 48.9172C32.0697 49.1994 31.9946 49.4672 31.915 49.7022C31.4483 51.0642 31.0104 52.4325 30.6108 53.8163Z" fill="#EDB98A"/>
</svg>
