<svg width="488" height="341" fill="none" xmlns="http://www.w3.org/2000/svg">
    <!--
      © 2024 Team SWS. All rights reserved.
      No reproduction or modification without consent.
      Contact: thomas@sws-corp.tech
      This code may be useful: 876
    -->
    <path fill-rule="evenodd" clip-rule="evenodd" d="M407.512 81.4847c-23.727 2.4908-42.634 15.0898-49.746 33.1503-2.079 5.281-2.633 9.039-2.686 18.24-.061 10.812.186 12.102 3.704 19.245 4.601 9.347 10.663 15.017 21.522 20.129 8.086 3.808 13.938 5.175 46.983 10.974 17.079 2.998 24.447 5.526 30.389 10.426 8.101 6.682 11.376 17.847 9.003 30.691-2.424 13.12-10.061 21.31-23.778 25.5-5.384 1.644-10.572 2.103-23.131 2.049-13.951-.061-17.104-.43-22.805-2.672-13.193-5.189-21.952-17.662-26.158-37.253l-2.089-9.729-15.44-.684v39.115l4.394 2.909c12.745 8.433 28.619 13.746 47.708 15.965 36.536 4.247 68.531-7.804 79.381-29.9 3.022-6.152 3.237-7.554 3.237-21.07 0-14.073-.108-14.699-3.855-22.31-8.028-16.306-23.16-23.794-56.63-28.023-24.945-3.151-37.173-7.142-45.022-14.694-5.663-5.448-7.645-11.836-6.991-22.526.969-15.841 6.575-23.4908 21.553-29.4104 5.546-2.1913 8.701-2.5741 20.983-2.5464 12.232.0278 15.492.4372 21.199 2.6609 7.933 3.0911 13.667 7.808 17.507 14.4019 3.127 5.37 7.55 21.155 7.55 26.945v3.83h17.346v-35.721l-6.514-4.6638c-15.654-11.2101-43.99-17.5079-67.614-15.0285ZM42.6271 83.6159C31.0493 86.744 23.1765 91.0365 15.3824 98.471c-7.91438 7.549-11.95251 15.254-13.6316 26.005-3.14309 20.131 5.68485 38.318 22.7891 46.95 9.597 4.844 16.7562 6.74 40.2184 10.65 11.4483 1.908 24.0276 4.522 27.9536 5.808 8.9931 2.945 16.8381 9.641 19.5181 16.656 2.708 7.093 1.904 22.381-1.526 29.027-6.977 13.515-23.6261 19.965-48.1799 18.666-26.0178-1.379-37.1932-10.99-43.5569-37.462-1.3506-5.623-2.6516-10.898-2.8909-11.722-.3123-1.083-2.6066-1.404-8.25441-1.157L0 202.235v38.161l7.18239 4.815c14.89561 9.984 33.97501 14.684 59.31051 14.606 18.958-.057 29.2719-2.153 42.3931-8.614 19.702-9.698 28.99-27.848 25.861-50.535-1.55-11.235-5.634-19.613-12.523-25.689-10.836-9.556-19.399-12.467-49.1847-16.718-23.4576-3.347-32.5816-5.957-40.2207-11.505-7.6369-5.547-10.573-12.16-10.573-23.819 0-7.753.5042-10.143 3.3316-15.8 6.4839-12.9701 17.9832-18.2109 39.7593-18.123 14.4469.0578 21.2939 1.7172 29.1632 7.0656 7.8313 5.3214 14.3593 19.0934 16.4913 34.7964l.832 6.119 16.063-.675.139-34.668-4.19-3.6216c-5.498-4.7528-16.498-10.0884-27.2758-13.2303-12.7146-3.7074-42.2004-4.3539-53.9321-1.1842Zm199.8819-.1631c-7.179.1804-12.802.7332-12.496 1.2293.801 1.2952 24.498 92.0489 40.734 156.0029l4.184 16.478h27.288l1.196-3.758c.911-2.864 39.95-146.156 45.21-165.9429l.999-3.7583h-8.966l-2.259 7.8057c-3.459 11.9615-12.29 44.3485-27.432 100.6045-7.576 28.142-14.033 51.161-14.351 51.153-.318-.008-9.416-35.69-20.22-79.293-10.803-43.604-19.909-79.633-20.236-80.0643-.328-.4314-6.471-.6373-13.651-.4569ZM137.41 85.332c1.118 2.9141 8.209 29.141 23.947 88.571 20.082 75.839 21.596 81.177 23.336 82.281.818.519 7.092.952 13.943.962 11.82.016 12.514-.116 13.586-2.584.621-1.432 6.86-23.897 13.865-49.924l12.737-47.323-1.952-9.081c-1.073-4.993-2.319-8.676-2.767-8.184-.449.492-3.526 11.043-6.838 23.445-3.311 12.403-7.989 29.835-10.394 38.74-2.405 8.904-5.82 21.783-7.589 28.62-1.768 6.838-3.538 12.432-3.931 12.432-.393 0-3.429-10.798-6.746-23.996-3.318-13.198-12.451-48.973-20.297-79.502l-14.266-55.507-13.644-.3273c-11.63-.2786-13.547-.0751-12.99 1.3773Z" fill="#FFF"/><path fill-rule="evenodd" clip-rule="evenodd" d="M226.465.23413c-34.947 5.12924-64.694 19.16227-87.717 41.38217-11.458 11.0594-18.27 19.3092-25.176 30.4921l-4.871 7.8856 2.287 1.8638c3.123 2.5454 4.686 2.342 6.117-.7977 3.022-6.6352 12.094-18.8023 20.839-27.9488l9.546-9.9858 4.341.7167c2.388.3941 4.486.8467 4.664 1.0065.178.1598-1.905 3.734-4.629 7.9441-4.231 6.5415-11.137 20.091-11.137 21.8525 0 .3057 1.647.556 3.66.556 3.419 0 3.88-.4367 7.03-6.6565 3.473-6.8568 12.231-20.5936 13.714-21.5096.722-.4473 8.485.2216 25.153 2.1653l4.291.4995-3.381 10.3543c-5.096 15.6071-6.447 25.2382-4.85 34.5541.721 4.2016 1.562 7.8896 1.868 8.1966 1.187 1.186 2.345-2.628 3.645-11.9977 1.54-11.103 5.234-26.3022 8.544-35.1484l2.252-6.0186h7.745c4.26 0 12.853.3121 19.094.6944l11.349.6944v24.1722h3.081c3.996 0 4.375-1.1929 4.375-13.8189V50.9322l17.473-.7711c9.609-.4239 17.98-.4569 18.6-.0735 1.921 1.1865 7.508 20.3146 10.853 37.1582 1.755 8.8345 3.425 16.2962 3.711 16.5832 1.146 1.144 2.423-1.8 3.488-8.0426 1.288-7.5522-.622-19.0227-6.032-36.2359l-3.078-9.792 5.449-.5538c2.997-.3046 8.974-.8446 13.28-1.1992 4.307-.3558 8.463-.8883 9.235-1.1844 1.659-.6368 10.313 11.2895 15.572 21.4596 3.42 6.6149 3.744 6.9131 7.514 6.9163l3.94.0043-1.663-3.9939c-2.078-4.9951-5.961-11.7985-11.208-19.6415-2.232-3.3346-3.698-6.2741-3.26-6.5319.437-.2577 2.336-.7988 4.219-1.2024 2.797-.5996 4.121-.1853 7.241 2.2706 5.106 4.0195 17.762 19.223 24.213 29.0874 2.868 4.3869 5.359 8.1188 5.534 8.2934.509.5091 5.919-2.1631 5.919-2.9235 0-1.1162-7.087-12.5621-12.143-19.6117-6.554-9.138-22.933-25.0774-33.654-32.75-15.796-11.3032-34.443-19.65848-55.915-25.05504C268.681.905109 263.884.408805 248.299.115918c-10.252-.1927719-20.077-.1395279-21.834.118212Zm4.633 15.27907c-4.481 2.9438-10.405 7.8653-13.166 10.9359-5.425 6.0334-11.61 14.5857-10.994 15.2013.209.2098 7.803.5357 16.876.7242l16.497.3429.278-6.3902c.152-3.5146-.088-10.84-.533-16.2791l-.81-9.889-8.148 5.354Zm17.201 27.7369 12.514-.0618c6.882-.033 14.32-.393 16.529-.7988l4.014-.737-3.831-5.8577c-6.479-9.906-13.021-15.9533-25.233-23.3244l-3.993-2.4102v33.1899ZM212.62 14.8966c-12.094 3.9545-26.985 12.5238-37.809 21.7587l-3.728 3.1803 4.793.5964c2.636.328 8.492.8754 13.013 1.2162l8.222.6199 5.945-9.2147c3.268-5.0686 8.652-11.7964 11.962-14.9521 3.31-3.1558 5.802-5.7161 5.538-5.6895-.265.0256-3.836 1.1439-7.936 2.4848Zm58.726 1.4931c5.646 5.0739 12.606 14.115 15.961 20.7343l2.625 5.1824 10.156-.7455c5.586-.41 11.653-1.0512 13.48-1.425l3.325-.6806-9.535-7.172c-10.622-7.9899-24.646-15.6326-33.426-18.2164-3.181-.9373-6.057-1.6892-6.39-1.6711-.333.0171 1.379 1.8149 3.804 3.9939ZM170.602 27.3703c-13.682 7.4574-16.932 10.5546-11.079 10.5546 1.836 0 4.532-1.5784 7.73-4.5265 2.701-2.49 6.585-5.8215 8.63-7.4052 5.126-3.9673 3.971-3.6659-5.281 1.3771Zm140.534-2.2334c1.464 1.2429 5.386 4.6287 8.715 7.5235 4.677 4.0684 6.856 5.2581 9.586 5.2357l3.532-.0287-3.727-3.144c-2.051-1.7297-7.562-5.1027-12.248-7.4947-5.087-2.5977-7.448-3.4401-5.858-2.0918ZM241.718 239.195c-.566 1.489-1.036 12.607-1.045 24.707-.007 12.099-.303 23.075-.655 24.392-.634 2.365-.857 2.392-19.107 2.392h-18.466l-2.122-4.157c-1.165-2.286-3.303-7.671-4.749-11.964-2.557-7.596-2.724-7.808-6.142-7.808-4.29 0-4.269.372.81 14.265 2.013 5.506 3.514 10.156 3.335 10.335-.178.178-4.846.816-10.373 1.418-5.528.602-11.792 1.369-13.921 1.704-3.858.607-3.892.578-9.738-8.239-3.225-4.866-7.206-11.599-8.846-14.963-2.844-5.834-3.164-6.115-6.987-6.115-3.807 0-3.957.13-3.021 2.593 1.877 4.936 6.703 13.923 11.33 21.103 2.557 3.967 4.649 7.414 4.649 7.661 0 .247-1.788.942-3.973 1.545-3.607.997-4.316.821-7.71-1.907-5.628-4.522-16.951-17.963-23.788-28.237-3.345-5.027-6.424-9.129-6.842-9.116-.418.013-1.862.871-3.207 1.907l-2.449 1.884 5.523 8.462c22.743 34.846 52.189 55.536 94.027 66.064 14.784 3.721 44.036 4.692 60.154 1.996 44.584-7.454 80.926-30.804 105.019-67.475l5.875-8.941-2.421-1.96c-1.332-1.079-2.767-1.96-3.189-1.96-.424 0-3.255 3.816-6.292 8.479-3.038 4.664-10.656 13.765-16.928 20.226l-11.405 11.746-8.947-2.746 5.147-7.42c5.085-7.328 13.406-22.643 12.682-23.338-.205-.198-1.791-.526-3.524-.729-2.925-.342-3.455.182-7.444 7.373-2.362 4.258-6.597 10.838-9.411 14.623-4.082 5.491-5.696 6.882-7.977 6.883-6.463.004-25.725-2.542-25.725-3.399 0-.508.746-2.703 1.659-4.878.912-2.175 2.545-7.141 3.626-11.034l1.969-7.08-2.299-.616c-4.258-1.142-4.698-.667-7.518 8.128-3.482 10.867-6.095 16.252-7.816 16.113-.727-.059-8.927-.178-18.223-.266l-16.903-.16-.519-24.195c-.286-13.307-.862-25.238-1.282-26.514-1.162-3.53-3.644-3.931-4.841-.782Zm-18.844 58.698c-8.921.162-16.219.53-16.219.819 0 1.728 6.655 10.555 12.644 16.772 6.965 7.228 18.727 15.441 20.123 14.049 1.088-1.086 1.627-30.439.573-31.244-.496-.379-8.2-.558-17.121-.396Zm25.259 15.667c0 9.062.358 16.473.798 16.467 1.926-.024 11.929-6.547 16.914-11.027 5.09-4.578 16.173-19.317 15.175-20.183-.248-.215-7.747-.692-16.668-1.062l-16.219-.672v16.477Zm-63.812-13.674c-1.462.22-4.723.668-7.247.993-4.054.525-4.425.792-3.19 2.3 2.574 3.145 18.26 14.255 24.748 17.531 6.874 3.47 16.954 7.2 19.456 7.2.842 0-1.507-3.281-5.217-7.292-3.711-4.009-8.605-10.47-10.876-14.357l-4.129-7.066-5.443.144c-2.994.08-6.639.326-8.102.547Zm102.817 4.207c-2.805 5.477-5.646 9.399-13.432 18.538-5.367 6.301-5.574 6.279 8.486.916 8.38-3.196 20.66-10.74 28.553-17.543 4.444-3.829 4.546-4.046 2.298-4.878-1.293-.477-7.052-1.177-12.796-1.554l-10.445-.685-2.664 5.206Zm-128.577-.275c-2.876 1.218-2.834 1.263 6.381 6.763 11.007 6.571 15.108 8.202 9.808 3.9-2.048-1.661-5.876-5.016-8.509-7.454-4.405-4.082-5.015-4.338-7.68-3.209Zm159.867 5.478c-9.046 7.641-9.833 8.566-5.42 6.366 8.461-4.217 18.024-10.381 17.477-11.266-1.377-2.228-5.696-.473-12.057 4.9Z" fill="#90CA03"/></svg>